REM MD5 40782865d299407024ce6cb0c81db1d6
FILE "Back to School Special - PlayStation Demo Disc (Asia).bin" BINARY
  TRACK 01 MODE2/2352
    INDEX 01 00:00:00
  TRACK 02 AUDIO
    INDEX 00 30:05:41
    INDEX 01 30:07:41
  TRACK 03 AUDIO
    INDEX 00 31:09:17
    INDEX 01 31:11:17
REM LEADOUT 35:11:60
